<svg width="100" height="100" viewBox="0 0 1000 1000" fill="none" xmlns="http://www.w3.org/2000/svg">
<path d="M587.53 280.66C559.545 240.693 457.055 239.758 424.45 250.86C344.808 278.031 339.841 335.936 340.484 350.486C340.484 350.486 363.506 324.308 376.361 315.427C389.216 306.545 406.278 294.158 428.365 287.029C450.452 279.9 481.829 272.421 506.84 270.668C551.42 267.63 587.53 280.66 587.53 280.66Z" fill="#D13535"/>
<path d="M634.16 363.633C634.145 363.3 634.11 362.968 634.045 362.64C629.485 334.359 619.025 300.644 591.215 287.556C559.72 248.64 479.725 247.413 434.149 255.711C392.02 266.462 350.943 296.613 341.769 341.079C341.418 344.234 338.964 354.109 339.841 359.602C321.902 386.129 317.929 454.903 365.083 428.492C383.372 419.319 395.351 402.315 411.302 390.044C461.086 354.284 526.82 337.222 585.485 360.537C596.645 364.218 607.63 368.366 618.97 371.113C625.92 373.8 634.745 372.924 634.16 363.633ZM430.409 262.722C457.58 255.827 487.38 256.47 515.075 259.742C529.8 261.729 544.82 265.06 558.55 270.727C565.97 273.824 574.035 278.44 580.17 283.933C499.709 260.969 400.726 288.432 345.976 352.006C349.54 308.474 388.163 274.992 430.409 262.722ZM626.155 366.672C617.39 365.036 608.92 362.289 600.505 359.426C557.325 342.306 508.71 337.164 465.001 355.57C439.116 365.445 413.406 377.949 393.656 397.757C387.871 403.425 380.976 410.612 375.367 414.936C367.771 420.662 357.429 427.09 349.131 428.375C346.21 428.668 344.34 428.609 341.71 427.557C339.081 426.506 336.919 424.11 335.517 420.546C333.063 413.592 332.654 405.47 333.589 397.231C333.708 396.874 333.768 396.499 333.764 396.121C333.764 395.946 333.822 395.712 333.822 395.537C333.947 394.755 334.163 393.99 334.465 393.258L334.932 392.44C335.225 391.914 335.575 391.388 335.926 390.862L336.043 390.746C339.198 386.772 343.405 383.734 347.32 380.579C351.235 377.423 356.669 373.859 361.577 371.872C362.746 371.288 368.823 369.535 370.05 369.535C372.434 369.223 374.848 369.204 377.237 369.477C378.405 369.652 379.574 369.944 380.743 370.236C384.365 371.288 385.943 365.62 382.32 364.627C373.088 361.88 363.272 364.159 354.974 368.542C349.657 372.048 342.412 376.255 336.744 381.397C337.796 377.774 339.023 374.209 340.367 370.82C340.717 369.535 344.165 363.166 344.866 362.523L344.983 362.406C345.112 362.296 345.212 362.155 345.275 361.997C393.948 300.235 477.914 274.526 554.4 283.933C568.425 286.095 586.01 289.25 597.99 298.307C617.04 314.376 624.575 340.319 628.375 364.101C628.435 365.445 627.85 367.198 626.155 366.672Z" fill="#452D34"/>
<path d="M658.175 791.7C677.425 761.42 687.605 726.265 687.51 690.38C687.51 659.24 680.32 629.67 666.12 602.56C652.95 577.48 634.3 555.69 611.545 538.81C635.585 511.45 648.8 476.248 648.71 439.827C648.71 412.306 642.925 391.446 628.785 367.957C628.57 367.59 628.28 367.27 627.94 367.015C627.6 366.76 627.21 366.576 626.795 366.473C626.385 366.369 625.955 366.349 625.53 366.413C625.11 366.478 624.705 366.625 624.345 366.847C623.985 367.062 623.67 367.348 623.42 367.686C623.175 368.024 622.995 368.409 622.895 368.817C622.8 369.225 622.785 369.649 622.85 370.063C622.92 370.477 623.07 370.873 623.29 371.229C636.79 393.667 642.28 413.533 642.28 439.827C642.28 519.235 577.655 583.86 498.248 583.86C418.84 583.86 354.156 519.235 354.156 439.827V436.964C354.083 435.229 354.142 433.491 354.332 431.764C354.37 431.342 354.325 430.916 354.199 430.512C354.073 430.107 353.868 429.731 353.597 429.406C353.326 429.08 352.993 428.811 352.618 428.614C352.242 428.418 351.832 428.296 351.41 428.258C350.558 428.181 349.709 428.445 349.052 428.993C348.395 429.541 347.982 430.327 347.904 431.18C347.715 433.141 347.657 435.112 347.729 437.081V439.827C347.638 476.248 360.853 511.45 384.891 538.81C362.17 555.73 343.539 577.535 330.375 602.62C316.176 629.73 308.989 659.295 308.989 690.38C308.989 726.785 319.156 761.67 338.263 791.645C295.257 833.305 272.586 888.29 272.586 950.87C272.586 951.72 272.925 952.54 273.527 953.14C274.13 953.745 274.947 954.085 275.8 954.085C276.652 954.085 277.47 953.745 278.072 953.14C278.675 952.54 279.014 951.72 279.014 950.87C279.014 890.45 300.75 837.395 341.886 797.135C348.56 806.825 356.089 815.9 364.382 824.25C399.891 859.72 448.029 879.645 498.219 879.645C548.41 879.645 596.545 859.72 632.055 824.25C640.375 815.925 647.91 806.85 654.55 797.135C695.105 837.92 717.425 892.38 717.425 950.87C717.425 951.72 717.765 952.54 718.365 953.14C718.97 953.745 719.785 954.085 720.64 954.085C721.49 954.085 722.31 953.745 722.91 953.14C723.515 952.54 723.85 951.72 723.85 950.87C723.85 890.215 700.54 833.77 658.175 791.7ZM498.248 873.215C397.396 873.215 315.416 791.235 315.416 690.38C315.416 631.6 342.295 578.25 389.215 543.6L391.786 546.23C420.022 574.445 458.304 590.295 498.219 590.295C538.135 590.295 576.415 574.445 604.65 546.23L607.225 543.6C654.2 578.135 681.08 631.485 681.08 690.38C681.08 791.235 599.045 873.215 498.248 873.215Z" fill="#452D34"/>
<path d="M476.512 416.806C472.422 414.469 466.696 418.325 467.222 423C467.748 427.674 474.292 431.414 478.148 427.616C482.005 423.818 480.018 418.208 476.512 416.806Z" fill="#452D34"/>
<path d="M569.595 417.799C565.56 415.462 559.775 419.318 560.305 423.993C560.83 428.667 567.43 432.407 571.29 428.609C575.145 424.811 573.16 419.201 569.595 417.799Z" fill="#452D34"/>
<path d="M590.745 448.768C592.38 453.852 578.65 459.987 584.845 459.812C586.555 459.751 588.25 459.435 589.87 458.877C597.875 456.306 602.725 449.002 600.62 442.516C598.515 436.03 590.395 432.933 582.39 435.504C578.51 436.661 575.175 439.169 572.98 442.574C571.23 445.437 589.75 445.671 590.745 448.768Z" fill="#D13535"/>
<path d="M473.919 452.531C475.742 446.004 470.643 438.877 462.53 436.611C454.418 434.346 446.364 437.802 444.542 444.329C442.719 450.856 447.818 457.984 455.931 460.249C464.043 462.514 472.097 459.058 473.919 452.531Z" fill="#D13535"/>
<path d="M538.275 472.198C501.99 474.01 513.15 439.535 529.685 441.756C549.845 444.502 569.885 448.884 586.54 452.741C590.98 453.734 590.98 460.103 586.54 461.155L538.275 472.198Z" fill="#CE9C5C"/>
<path d="M587.24 443.216C569.3 439.068 549.96 434.861 530.15 432.173C524.135 431.355 518.29 434.218 514.49 439.886C510.695 445.554 509.82 453.384 513.03 459.051C515.605 463.726 521.68 469.102 535.585 469.102H538.39L538.975 468.985L587.24 457.941C588.89 457.549 590.36 456.612 591.41 455.281C592.46 453.95 593.035 452.304 593.035 450.608C593.035 448.912 592.46 447.266 591.41 445.935C590.36 444.605 588.89 443.667 587.24 443.275V443.216ZM585.835 451.631L555.1 458.642C555.51 456.48 555.92 454.318 556.27 452.157C557.325 448.475 551.595 446.898 550.66 450.579C550.78 453.033 548.85 457.065 548.79 460.103L537.805 462.616C528.105 463.025 521.27 460.687 518.64 455.896C516.595 452.332 517.065 447.482 519.81 443.509C522.555 439.535 525.01 438.484 528.165 438.484H529.275L534.71 439.243C529.92 452.39 539.91 452.215 539.21 446.313V445.437C539.56 443.684 540.26 441.989 540.555 440.178C551.185 441.931 561.705 444.035 571.815 446.255C571.86 446.564 571.88 446.877 571.87 447.19C571.83 447.453 571.75 447.708 571.64 447.949C571.525 448.195 571.385 448.43 571.23 448.651C567.02 453.968 575.555 456.714 577.365 449.352C577.57 448.786 577.71 448.197 577.775 447.599L585.835 449.41C586.08 449.453 586.3 449.584 586.45 449.779C586.6 449.973 586.675 450.216 586.655 450.462C586.69 450.724 586.625 450.99 586.475 451.206C586.325 451.423 586.095 451.574 585.835 451.631Z" fill="#452D34"/>
<path d="M869.115 541.675C863.505 548.395 858.245 555.695 852.4 561.715C851.6 562.585 850.62 563.275 849.535 563.735C848.445 564.2 847.275 564.425 846.09 564.405C838.73 564.17 838.26 554.235 835.4 547.81C830.08 535.945 811.965 535.19 801.975 543.485C791.985 551.78 788.36 565.395 786.315 578.25C784.845 587.145 783.93 596.125 783.57 605.13C783.22 614.48 787.31 618.685 792.975 626.165C793.5 626.925 792.51 632.885 792.8 633.705C794.435 638.435 794.73 643.58 796.66 648.195C800.165 656.725 808.695 662.395 817.635 664.44C826.575 666.485 836.04 665.255 844.98 663.095C876.745 655.48 904.805 636.895 924.215 610.625C936.075 594.435 944.55 574.28 940.985 554.585C940.165 550.09 934.32 533.785 923.16 531.33" fill="#D13535"/>
<path d="M640.355 683.66C639.1 681.935 638.04 680.07 637.2 678.11C637.315 678.405 637.375 678.46 637.315 678.405C636.4 676.175 635.77 673.835 635.445 671.45C635.035 668.295 635.33 662.685 637.255 658.42C637.195 658.525 637.155 658.645 637.14 658.77C637.7 657.345 638.425 655.99 639.3 654.74C641.29 651.465 636.205 648.545 634.275 651.76C626.27 663.62 628.435 681.21 639.07 690.79C641.7 693.42 645.905 689.27 643.16 686.64C642.165 685.705 641.23 684.71 640.355 683.66Z" fill="#452D34"/>
<path d="M830.955 538.87H830.9C830.955 539.335 831.075 539.22 830.955 538.87Z" fill="#452D34"/>
<path d="M921.995 518.065C916.615 517.66 917.495 524.025 922.345 524.26H922.285C928.245 527.005 931.225 532.035 934.265 538.695C936.72 543.6 937.595 553.42 936.485 560.84C934.615 574.63 927.425 588.885 918.31 600.69L918.08 600.98L917.845 601.275C910.85 610.16 902.805 618.165 893.89 625.115C872.27 641.71 828.15 662.685 804.665 645.8C803.32 644.92 800.575 641.94 800.22 641.475C799.17 640.055 798.27 638.525 797.535 636.915C796.015 633.175 795.49 629.085 794.495 625.23C793.62 620.38 788.885 615.475 787.6 611.79C782.575 600.165 784.915 587.6 786.255 574.865C786.285 574.69 786.305 574.515 786.315 574.335C788.475 559.435 791.05 544.13 802.445 534.835C803.765 533.885 805.17 533.065 806.65 532.385H806.825C808.76 531.59 810.78 531.02 812.845 530.69H812.96C813.31 530.63 813.075 530.69 812.9 530.69C814.86 530.455 816.845 530.455 818.805 530.69C820.48 530.945 822.125 531.375 823.71 531.975C824.18 532.15 823.535 531.915 823.535 531.855C825.7 532.765 827.62 534.165 829.145 535.945C829.85 536.845 830.44 537.825 830.9 538.87C833.47 545.065 834.055 553.65 841.18 556.4C850.415 559.435 855.965 549.33 861.05 543.545C862.8 540.04 872.62 532.615 869.23 529.23C868.18 528.235 866.135 527.94 865.14 529.23C859.295 536.065 854.215 543.6 847.725 549.855C847.37 550.155 846.975 550.41 846.56 550.615L846.09 550.79L845.155 551.025H843.81L842.585 550.67C843.635 550.965 842.47 550.615 842.115 550.38L842 550.265L841.18 549.385C840.645 548.59 840.175 547.75 839.78 546.875C836.275 531.68 828.15 522.625 811.56 524.96C786.55 529.23 781.99 559.085 779.77 580.12C777.315 595.43 778.545 611.56 787.66 623.655C777.375 630.315 766.215 635.455 754.995 640.305C729.81 650.88 696.68 661.05 669.57 664.38C661.68 665.255 653.795 665.78 645.845 665.255C642.105 665.2 642.05 671.1 645.845 671.1C688.035 672.035 729.285 657.72 767.56 641.065C770.245 639.43 782.285 634.52 789.12 629.845C799.99 677.41 863.97 654.095 892.485 633.41C918.08 614.655 942.035 586.605 942.795 553.42C942.91 539.57 936.31 522.39 921.995 518.065ZM806.825 532.325L807 532.21L806.825 532.325Z" fill="#452D34"/>
<path d="M922.345 524.26C922.635 524.38 922.81 524.61 922.345 524.26V524.26Z" fill="#452D34"/>
<path d="M169.572 597.535C166.592 601.505 164.722 606.3 161.509 610.155C155.548 617.165 145.732 620.03 136.558 619.21C127.385 618.395 118.854 614.42 110.965 609.69C83.016 592.725 61.919 566.48 51.365 535.54C44.996 516.55 43.0678 494.812 52.475 477.107C61.8825 459.402 85.3135 448.417 103.077 457.766C121.717 467.524 125.515 492.241 134.688 510.82C135.174 511.89 135.885 512.84 136.773 513.605C137.66 514.37 138.704 514.94 139.83 515.265C146.959 517.31 150.407 508.015 155.081 502.76C163.787 493.059 181.2 497.792 188.212 508.775C195.223 519.76 194.581 533.785 192.652 546.64C191.339 555.555 189.466 564.375 187.043 573.05C184.589 582.05 182.076 580.705 174.422 586.14C173.662 586.665 170.098 596.775 169.572 597.535Z" fill="#D13535"/>
<path d="M206.968 603.73C199.527 599 192.578 593.54 186.225 587.425C184.998 586.665 183.829 585.09 182.544 583.745C191.601 575.68 196.041 563.645 198.145 551.84C201.768 533.26 207.085 511.405 195.574 494.578C182.719 478.393 161.742 479.503 152.802 497.208C151.734 498.664 150.407 499.912 148.887 500.89L148.069 501.12H147.018C146.171 500.98 145.37 500.64 144.68 500.13H144.622C144.106 499.687 143.654 499.176 143.278 498.61C138.311 488.91 135.273 477.925 130.306 467.349C120.84 443.275 95.948 431.94 72.9845 446.139C38.627 466.823 46.34 514.68 62.759 544.885C77.8345 576.09 136.558 635.575 170.156 599.52C173.019 595.84 174.831 591.575 177.519 587.775L177.869 587.485C183.888 594.965 200.95 606.65 204.047 608.755C207.143 610.855 210.24 605.655 206.968 603.73ZM165.482 596.13C164.437 597.4 163.284 598.57 162.034 599.64C160.409 600.825 158.666 601.845 156.834 602.675C154.428 603.705 151.891 604.39 149.296 604.72C134.513 606.71 118.386 596.775 105.706 587.25C87.0815 572.85 72.457 553.92 63.2265 532.265C57.208 517.89 52.9425 500.83 55.163 484.528C55.455 481.373 57.325 474.186 58.786 471.03C60.1805 467.635 62.007 464.434 64.22 461.506C64.921 460.279 70.4135 454.903 71.524 454.261C79.237 448.067 90.1635 444.795 98.4025 446.022C103.837 446.84 107.518 448.476 111.959 451.806C118.036 456.13 124.112 466.882 126.8 473.777C131.592 483.768 133.461 495.864 140.648 504.455C151.108 512.635 158.061 499.603 162.736 493.41C168.754 486.748 178.921 488.034 186.751 493.76C188.185 494.951 189.496 496.282 190.666 497.734C191.89 499.521 192.946 501.42 193.821 503.4C197.327 511.23 197.093 523.56 195.808 532.265C194.113 543.195 191.834 556.165 188.27 565.63C185.79 571.595 181.852 576.835 176.818 580.88C175.395 581.58 174.17 582.625 173.253 583.92L172.727 584.56C170.039 588.245 168.228 592.45 165.482 596.13Z" fill="#452D34"/>
<path d="M314.014 652.52C295.901 644.98 276.501 637.035 258.972 629.67C250.149 625.93 241.326 622.075 232.736 617.81C229.464 615.88 226.484 620.965 229.756 622.835C250.675 633.06 272.47 641.415 293.914 650.475L312.495 658.125C316.06 659.24 317.696 653.57 314.014 652.52Z" fill="#452D34"/>
<path d="M484.342 689.68C496.25 689.68 505.905 680.025 505.905 668.12C505.905 656.21 496.25 646.56 484.342 646.56C472.434 646.56 462.781 656.21 462.781 668.12C462.781 680.025 472.434 689.68 484.342 689.68Z" fill="#CE9C5C"/>
<path d="M484.342 801.11C496.25 801.11 505.905 791.455 505.905 779.55C505.905 767.64 496.25 757.985 484.342 757.985C472.434 757.985 462.781 767.64 462.781 779.55C462.781 791.455 472.434 801.11 484.342 801.11Z" fill="#CE9C5C"/>
<path d="M476.395 690.615C443.791 690.03 443.791 641.59 476.395 641.005C508.94 641.59 508.94 690.03 476.395 690.615ZM476.395 647.435C452.205 647.845 452.205 683.78 476.395 684.19C500.585 684.595 500.525 647.845 476.395 647.435Z" fill="#452D34"/>
<path d="M476.395 802.045C443.791 801.46 443.791 753.02 476.395 752.435C508.94 753.02 508.94 801.46 476.395 802.045ZM476.395 758.865C452.205 759.27 452.205 795.21 476.395 795.615C500.585 796.025 500.525 759.27 476.395 758.865Z" fill="#452D34"/>
<path d="M855.905 603.435L857.195 602.325C859.245 600.755 861.48 599.44 863.855 598.41C866.775 597.065 872.21 595.605 876.36 595.08C880.505 594.555 886.64 594.32 891.435 594.205C895.23 594.26 895.23 588.36 891.435 588.36C880.39 588.655 868.935 589.06 858.885 594.32C856.315 595.675 853.92 597.345 851.76 599.285C849.07 601.915 853.22 606.065 855.905 603.435Z" fill="#452D34"/>
<path d="M850.765 575.915C849.925 576.435 849.205 577.135 848.66 577.96C846.615 580.825 848.37 584.855 851.875 585.495C855.38 586.14 855.73 586.605 855.09 590.055C854.935 590.865 854.99 591.7 855.245 592.48C855.5 593.265 855.95 593.97 856.55 594.535C857.145 595.1 857.88 595.505 858.675 595.71C859.475 595.92 860.31 595.925 861.11 595.725C863.31 595.07 865.41 594.13 867.36 592.92C868.1 592.465 868.945 592.205 869.815 592.16C875.365 592.04 889.68 594.495 885.53 577.785C885.405 577.37 885.365 576.93 885.415 576.5C885.47 575.875 885.4 575.245 885.21 574.65C885.02 574.055 884.71 573.505 884.3 573.03C883.89 572.555 883.39 572.17 882.83 571.89C882.27 571.615 881.66 571.45 881.035 571.415C879.97 571.305 878.97 570.865 878.165 570.165C877.36 569.465 876.79 568.535 876.535 567.5V567.385C876.36 566.685 876.035 566.04 875.58 565.485C875.125 564.925 874.555 564.48 873.905 564.17C873.255 563.865 872.55 563.705 871.83 563.705C871.115 563.705 870.405 563.865 869.755 564.17C862.57 567.265 851.815 565.395 852.225 573.4C852.25 573.915 852.125 574.425 851.865 574.87C851.605 575.32 851.225 575.68 850.765 575.915Z" fill="#EFDCC4"/>
<path d="M859.06 592.745L859.295 592.86C859.295 592.8 859.18 592.8 859.06 592.745Z" fill="#452D34"/>
<path d="M879.515 567.265C879.515 567.235 879.51 567.205 879.5 567.175C879.49 567.145 879.475 567.115 879.455 567.09C879.475 567.115 879.49 567.145 879.5 567.175C879.51 567.205 879.515 567.235 879.515 567.265Z" fill="#452D34"/>
<path d="M889.155 581.64C888.51 575.915 888.045 568.73 880.74 568.375C880.625 568.375 879.69 567.615 880.1 567.97C880.505 568.32 879.57 567.44 879.515 567.265C879.515 567.15 879.28 566.74 879.455 567.035C878.635 561.54 871.39 559.61 868.585 561.425C861.69 564.17 848.955 562.885 849.245 573.345C849.245 573.285 849.245 573.285 849.305 573.285C849.365 573.11 849.365 573.285 849.305 573.285H849.245C842.235 577.085 844.395 587.835 852.345 588.535C852.36 588.635 852.34 588.74 852.285 588.83C852.345 588.77 852.345 588.71 852.4 588.535C850.475 599.755 862.16 600.575 869.17 595.14C879.22 595.37 890.205 594.67 889.155 581.64ZM882.435 575.855H882.495C882.435 575.68 882.435 575.39 882.435 575.855ZM881.5 574.51C881.615 574.57 881.79 574.57 881.5 574.51V574.51ZM880.565 568.32C880.505 568.32 880.505 568.32 880.505 568.26C880.505 568.2 880.505 568.32 880.565 568.32ZM873.555 567.615C873.495 567.5 873.495 567.56 873.555 567.615V567.615ZM873.67 567.91C873.61 567.97 873.61 567.85 873.555 567.795L873.67 567.91ZM849.365 573.345C849.48 573.225 849.595 572.995 849.365 573.345V573.345ZM862.625 592.1C862.745 592.04 862.86 592.04 862.625 592.1V592.1ZM883.37 583.805C883.31 585.615 882.495 587.485 880.8 588.245C880.505 588.42 879.57 588.71 880.625 588.36C875.95 590.465 870.515 587.95 865.955 590.345C864.03 591.4 862.04 592.685 859.82 592.92C859.82 592.935 859.83 592.95 859.84 592.96C859.85 592.97 859.865 592.975 859.88 592.975H859.295C859.415 593.035 858.77 592.8 859.06 592.86L858.83 592.745C858.885 592.86 858.71 592.685 858.655 592.625C858.425 592.425 858.23 592.185 858.07 591.925C858.07 591.81 858.01 591.75 858.07 591.81C857.995 591.665 857.955 591.505 857.95 591.34C859.06 585.85 856.9 583.45 851.64 582.46L851.29 582.225H851.41L851.235 581.99C851.35 582.285 851.115 581.815 851 581.815H851.055C850.755 581.35 850.65 580.78 850.765 580.24C850.825 580.12 851.055 579.77 850.825 580.12C851.16 579.475 851.64 578.915 852.225 578.485C856.14 576.44 853.98 572.995 856.14 570.83L856.025 570.95C860.465 568.61 866.835 568.96 870.925 566.86L871.45 566.74H871.39C871.765 566.665 872.15 566.705 872.5 566.86C872.21 566.625 872.675 566.975 872.735 566.915L872.85 567.035H872.91C872.795 566.915 873.145 567.265 873.205 567.21H873.145C874.37 570.245 875.95 573.46 879.57 574.16C880.39 574.395 881.325 574.28 881.97 574.92C882.61 575.565 882.26 575.215 882.26 575.33C882.26 575.445 882.32 575.39 882.375 575.505C882.53 577.335 882.805 579.15 883.195 580.94C883.195 581.055 883.255 581.465 883.195 581.23C883.335 582.08 883.395 582.94 883.37 583.805Z" fill="#452D34"/>
<path d="M859.53 592.92C859.645 592.92 859.705 592.975 859.82 592.92H859.53Z" fill="#452D34"/>
<path d="M872.735 566.855H872.5C872.56 566.855 872.62 566.915 872.735 566.855Z" fill="#452D34"/>
<path d="M873.145 567.15L872.91 566.975C872.97 567.035 873.03 567.15 873.145 567.15Z" fill="#452D34"/>
<path d="M882.375 575.445C882.375 575.39 882.32 575.33 882.26 575.27C882.2 575.215 882.32 575.39 882.375 575.445Z" fill="#452D34"/>
<path d="M858.71 592.565H858.83L858.655 592.45C858.67 592.445 858.685 592.44 858.705 592.445C858.72 592.45 858.735 592.465 858.74 592.48C858.75 592.495 858.75 592.515 858.745 592.53C858.74 592.545 858.725 592.56 858.71 592.565Z" fill="#452D34"/>
<path d="M857.95 591.165C857.95 591.05 858.01 591.165 857.95 591.165V591.165Z" fill="#452D34"/>
<path d="M851.41 582.165L851.64 582.34C851.63 582.29 851.6 582.245 851.555 582.215C851.515 582.18 851.46 582.165 851.41 582.165Z" fill="#452D34"/>
<path d="M858.07 591.69V591.81C858.13 591.75 858.07 591.75 858.07 591.69Z" fill="#452D34"/>
<path d="M851.055 581.76L851.235 581.935C851.235 581.895 851.175 581.835 851.055 581.76Z" fill="#452D34"/>
<path d="M858.48 450.112C860.115 453.011 861.465 456.064 862.51 459.227C862.645 459.645 862.69 460.086 862.645 460.522C862.6 460.959 862.47 461.382 862.255 461.765C862.04 462.148 861.75 462.483 861.405 462.75C861.055 463.017 860.655 463.21 860.23 463.317L844.63 466.122C844.4 466.16 844.16 466.138 843.94 466.061C843.72 465.983 843.52 465.85 843.365 465.676C843.205 465.501 843.095 465.29 843.04 465.062C842.985 464.834 842.99 464.595 843.05 464.369C843.92 461.273 845.2 458.306 846.85 455.546C848.835 452.098 852.225 449.177 856.14 448.826C856.635 448.796 857.125 448.918 857.545 449.177C857.925 449.411 858.245 449.732 858.48 450.112Z" fill="#CE9C5C"/>
<path d="M865.49 459.052C863.62 454.377 862.16 445.963 855.905 445.904C847.435 444.56 832.065 469.745 845.505 468.927C851.99 466.765 866.365 469.044 865.49 459.052ZM844.22 463.2C843.695 463.317 843.93 463.2 844.28 463.2H844.22ZM845.915 464.953C845.855 465.128 845.915 465.362 845.915 464.953V464.953ZM859.59 460.454H859.53L846.615 462.791C848.43 458.35 850.825 452.799 856.025 451.747C856.49 452.565 856.9 453.383 857.31 454.202C851.055 455.136 854.155 462.382 859.645 459.869C859.705 459.928 859.705 460.045 859.765 460.103C859.705 459.986 859.765 459.928 859.765 460.103C859.765 460.278 859.82 459.986 859.765 460.161C859.75 460.161 859.735 460.168 859.72 460.179C859.71 460.19 859.705 460.204 859.705 460.22H859.59V460.454ZM859.82 460.337C859.805 460.337 859.79 460.331 859.78 460.32C859.77 460.309 859.765 460.294 859.765 460.278H859.82V460.337Z" fill="#452D34"/>
<path d="M859.705 460.338C859.75 460.269 859.77 460.186 859.765 460.104C859.725 460.175 859.705 460.256 859.705 460.338Z" fill="#452D34"/>
<path d="M859.53 460.454C859.59 460.454 859.645 460.454 859.645 460.396L859.53 460.454Z" fill="#452D34"/>
<path d="M881.79 541.73L882.025 541.5L881.79 541.73Z" fill="#452D34"/>
<path d="M895.29 543.66L895.405 543.955C895.35 543.835 895.29 543.775 895.29 543.66Z" fill="#452D34"/>
<path d="M892.02 539.51L892.25 539.745L892.075 539.57L892.02 539.51Z" fill="#452D34"/>
<path d="M918.84 532.09L919.13 532.325C919.13 532.31 919.125 532.295 919.115 532.285C919.1 532.27 919.085 532.265 919.07 532.265L918.84 532.09Z" fill="#452D34"/>
<path d="M873.435 438.659C870.225 435.387 863.91 437.432 862.92 441.873C861.05 450.404 873.495 453.617 875.83 445.086C876.535 441.873 875.25 439.711 873.435 438.659Z" fill="#452D34"/>
<path d="M851.815 436.205C848.545 432.933 842.235 434.978 841.3 439.419C839.37 447.95 851.815 451.164 854.155 442.633C854.855 439.419 853.63 437.257 851.815 436.205Z" fill="#452D34"/>
<path d="M911.185 477.516L911.3 477.341L911.185 477.516Z" fill="#452D34"/>
<path d="M944.955 495.922H944.9L944.725 495.805C944.78 495.805 944.84 495.922 944.955 495.922Z" fill="#452D34"/>
<path d="M952.67 500.595L952.555 500.42V500.305C952.555 500.275 952.55 500.24 952.54 500.21C952.53 500.18 952.515 500.155 952.495 500.13C952.495 500.115 952.5 500.1 952.51 500.09C952.52 500.075 952.535 500.07 952.555 500.07C952.555 499.603 952.495 499.779 952.495 499.954C953.43 490.196 941.275 486.281 932.86 489.086C932.98 486.865 933.505 483.71 933.21 481.139C939.64 478.51 944.255 472.783 942.68 464.603C947.235 462.967 947.76 455.897 944.665 452.274C941.57 448.651 939.17 447.424 935.49 446.606C930.935 445.496 923.455 445.087 921.06 443.451C907.035 420.137 876.475 402.899 850.065 415.871C834.52 424.168 826.515 438.426 824.355 454.261C823.875 454.388 823.435 454.629 823.07 454.962C816.815 461.097 811.56 468.81 809.28 477.341C807.35 482.775 811.965 488.969 816.99 488.618C818.235 490.894 820.205 492.689 822.59 493.716C824.97 494.743 827.63 494.943 830.14 494.286C834.405 504.455 840.715 513.625 848.545 520.52C857.775 529.46 868.47 534.605 879.045 536.18C875.6 539.22 873.38 543.66 875.25 547.635C877.175 549.62 880.215 547.925 880.275 545.415C880.33 542.9 880.74 543.425 881.85 541.73L881.735 541.85L881.85 541.73C881.97 541.615 882.145 541.44 882.085 541.555C882.53 540.995 883.04 540.485 883.605 540.04H884.42C885.295 541.755 885.845 543.615 886.06 545.53V545.24C886.175 547.635 885.825 551.255 889.095 551.315C894.47 550.32 891.435 542.26 890.03 538.345C890.745 538.675 891.43 539.065 892.075 539.51C892.02 539.51 892.02 539.51 892.02 539.455C892.02 539.395 892.075 539.51 892.135 539.57L892.31 539.745C893.645 540.765 894.69 542.115 895.35 543.66C895.29 543.6 895.29 543.6 895.29 543.545C895.29 543.485 895.35 543.6 895.35 543.66C895.35 543.77 895.395 543.87 895.465 543.955C895.7 544.595 895.88 545.26 895.99 545.94C895.99 547.575 897.045 549.385 898.915 549.27C900.785 549.155 901.95 547.985 901.835 546.35C901.66 542.61 899.615 538.52 896.635 535.715C899.125 535.14 901.565 534.38 903.94 533.435C903.455 536.84 903.715 540.305 904.695 543.6C906.745 547.925 912.175 545.47 909.725 539.455C909.5 537.885 909.48 536.295 909.665 534.72H909.725L910.365 535.77C910.655 540.68 916.91 541.325 916.5 536.065C916.045 533.97 915.105 532.005 913.755 530.34C915.04 530.28 915.505 530.455 917.2 531.04L918.895 532.035L919.13 532.21H919.19C920.885 533.435 921.7 536.88 925.03 535.305C929.18 531.45 922.985 526.775 917.145 525.02L918.84 523.385L919.13 523.095L919.305 522.86L920.18 521.98C924.68 518.01 936.72 518.535 944.43 516.02C950.86 514.56 957.755 506.905 952.67 500.595ZM946.65 497.792C946.65 497.734 946.595 497.734 946.595 497.675C946.625 497.705 946.645 497.747 946.65 497.792ZM936.835 469.979C936.87 469.845 936.89 469.708 936.895 469.57C936.95 469.628 936.895 469.745 936.835 469.979ZM940.81 458.351C940.805 458.25 940.825 458.15 940.865 458.059C940.825 458.151 940.805 458.25 940.81 458.351ZM814.77 479.328C814.715 479.795 814.77 479.503 814.77 479.328V479.328ZM814.89 481.49C814.915 481.545 814.935 481.604 814.945 481.665C814.925 481.641 814.91 481.614 814.9 481.583C814.89 481.553 814.885 481.521 814.89 481.49ZM822.66 486.69C822.665 486.735 822.685 486.777 822.72 486.807C822.685 486.777 822.665 486.735 822.66 486.69ZM827.745 488.852H826.34C825.785 488.739 825.235 488.583 824.705 488.385C825.465 488.677 823.71 487.917 823.595 487.742C823.48 487.567 823.185 487.333 822.775 486.865C822.37 486.398 822.31 486.164 822.25 485.989C822.19 485.814 822.135 485.814 822.075 485.697C821.375 481.607 818.685 481.256 816.875 482.658H816.465L816.055 482.541L815.53 482.249L815.18 481.899L815.005 481.607C814.985 481.583 814.97 481.555 814.96 481.525C814.95 481.495 814.945 481.463 814.945 481.431C814.7 480.719 814.64 479.954 814.77 479.211C815.09 477.668 815.56 476.161 816.175 474.712C818.06 470.352 820.58 466.296 823.655 462.675C823.64 471.522 825.1 480.31 827.975 488.677L827.745 488.852ZM856.84 519.995C847.085 512.515 839.43 501.65 835.105 491.306C832.585 485.303 830.855 478.998 829.965 472.55C829.44 468.81 829.145 460.688 829.965 455.546C829.965 455.663 829.905 455.838 829.905 455.955C830.955 447.074 834.815 437.783 839.315 432.115C840.89 429.953 845.215 425.688 846.21 425.103C848.255 423.467 853.335 420.546 854.505 420.195C857.635 418.912 860.915 418.028 864.265 417.566C869.87 416.397 881.5 418.267 886.935 420.896C897.275 425.396 904.99 431.823 912.06 440.705C918.545 452.975 925.44 449.82 936.25 452.858C937.055 453.227 937.815 453.678 938.53 454.202C939.025 454.64 939.495 455.108 939.93 455.605H939.875C939.93 455.663 939.93 455.721 939.99 455.721C940.05 455.721 940.575 456.54 940.575 456.832L940.455 456.54C940.615 456.85 940.715 457.186 940.75 457.533C940.765 457.533 940.78 457.539 940.79 457.55C940.8 457.561 940.81 457.576 940.81 457.591C940.78 457.844 940.78 458.099 940.81 458.351C940.76 458.529 940.7 458.705 940.635 458.877L940.455 459.169H940.4C937.475 458.701 935.665 462.149 936.775 465.596C936.96 466.952 937 468.323 936.895 469.687C936.895 469.803 936.835 469.862 936.835 469.92L936.6 470.68C936.27 471.355 935.875 472 935.43 472.608L935.255 472.783C934.765 473.401 934.195 473.951 933.56 474.42C932.85 474.978 932.065 475.431 931.225 475.763H931.34C930.575 476.02 929.795 476.234 929.005 476.406H928.13C923.865 476.698 918.665 475.822 917.025 474.653C916.91 474.653 916.44 474.069 916.325 473.952C914.28 471.206 909.955 473.718 911.3 476.874V476.991V477.107H911.36C911.3 477.107 911.3 477.107 911.3 477.166C911.24 477.283 911.24 477.341 911.185 477.283C911.125 477.224 911.125 477.4 911.125 477.458C911.055 477.566 910.955 477.648 910.835 477.692L910.54 477.925H910.48C910.07 478.096 909.64 478.214 909.195 478.276C906.8 478.627 901.775 476.874 899.79 475.179C898.73 474.315 897.755 473.357 896.87 472.316C896.175 471.359 895.57 470.342 895.055 469.278C894.355 467.408 894.12 466.59 894.295 464.778C896.4 461.565 891.435 457.241 889.04 462.09C883.895 478.919 911.36 490.43 916.15 480.496C919.595 482.164 923.45 482.813 927.25 482.366C927.485 490.722 925.85 499.603 923.16 506.09C921.61 509.64 919.67 513.01 917.375 516.14C917.085 516.49 916.795 516.9 916.44 517.25C915.76 517.82 915.17 518.49 914.69 519.235C913.335 520.75 911.825 522.12 910.19 523.325C906.685 526.48 897.045 530.395 892.72 530.63C884.83 531.855 875.775 529.93 869.755 527.36C865.55 525.895 859.24 521.925 856.84 519.995ZM946.595 508.545C941.45 512.165 933.855 511.99 927.135 513.335L926.26 513.45C929.24 508.02 931.235 502.105 932.16 495.981C932.22 495.981 932.22 495.981 932.22 495.922C935.375 493.527 940.4 493.76 943.085 494.812L943.435 494.987L944.725 495.747C944.665 495.689 944.725 495.689 944.84 495.805H944.955L946.185 496.974C946.355 497.198 946.51 497.433 946.65 497.675L946.77 498.084V498.376V498.552C946.185 500.42 947.705 503.635 948.23 504.1C948.33 504.245 948.41 504.405 948.46 504.57C948.46 504.685 948.58 504.86 948.58 504.92C948.58 504.98 948.64 505.155 948.64 505.27C948.64 505.39 948.52 505.97 948.46 506.03V506.205L947.935 507.08C947.545 507.62 947.095 508.11 946.595 508.545ZM948.405 506.44C948.465 506.325 948.465 506.205 948.52 506.205L948.405 506.44Z" fill="#452D34"/>
<path d="M891.005 521.225C898.79 513.31 896.23 498.181 885.3 487.437C874.365 476.693 859.195 474.402 851.415 482.32C843.635 490.238 846.19 505.365 857.12 516.11C868.055 526.855 883.225 529.145 891.005 521.225Z" fill="#D13535"/>
<path d="M289.531 545.415C288.298 548.51 287.378 551.72 286.785 554.995C286.711 555.435 286.727 555.885 286.832 556.315C286.938 556.75 287.13 557.155 287.398 557.51C287.666 557.865 288.004 558.165 288.391 558.385C288.778 558.605 289.206 558.745 289.648 558.795L305.425 559.38C305.655 559.395 305.887 559.355 306.098 559.26C306.308 559.16 306.49 559.01 306.625 558.825C306.76 558.635 306.844 558.415 306.87 558.185C306.895 557.955 306.86 557.72 306.768 557.51C305.495 554.53 303.824 551.74 301.802 549.21C299.348 546.115 295.608 543.72 291.693 543.895C291.445 543.89 291.199 543.93 290.968 544.02C290.738 544.11 290.527 544.25 290.349 544.42C289.987 544.665 289.703 545.01 289.531 545.415Z" fill="#CE9C5C"/>
<path d="M289.648 555.52V555.64C289.707 555.64 289.648 555.58 289.648 555.52Z" fill="#452D34"/>
<path d="M308.989 555.29C306.477 550.205 303.088 544.945 297.829 542.315C294.265 540.62 288.246 539.805 286.727 544.655C282.169 555.64 282.052 563.12 296.31 561.95C301.393 562.185 312.904 564.17 308.989 555.29ZM289.649 555.52V555.405C289.656 555.405 289.664 555.405 289.671 555.41C289.678 555.41 289.684 555.415 289.69 555.42C289.695 555.43 289.7 555.435 289.703 555.44C289.705 555.45 289.707 555.455 289.707 555.465L289.649 555.52ZM289.649 555.52C289.649 555.535 289.642 555.55 289.631 555.565C289.62 555.575 289.606 555.58 289.59 555.58C289.532 555.465 289.59 555.465 289.649 555.52ZM289.999 555.875H289.941C289.941 555.875 289.707 555.815 289.649 555.64V555.465C289.688 555.39 289.708 555.31 289.707 555.23C291.402 555.52 293.271 555.23 294.323 554.41C295.375 553.595 294.791 549.33 292.278 549.385H291.226C291.518 548.51 291.811 547.635 292.161 546.7H292.921C297.771 547.46 300.751 552.31 303.029 556.28L289.999 555.875ZM305.367 556.455C305.425 556.515 305.483 556.455 305.367 556.455V556.455Z" fill="#452D34"/>
<path d="M274.456 534.955L273.755 535.595C273.023 536.02 272.433 536.65 272.06 537.41C268.905 542.315 274.748 548.8 280.007 546.755C288.888 543.37 282.753 529.985 274.456 534.955Z" fill="#452D34"/>
<path d="M295.609 529.58L294.907 530.22C294.164 530.63 293.57 531.265 293.213 532.03C290.058 536.94 295.901 543.425 301.16 541.38C310.041 537.99 303.906 524.61 295.609 529.58Z" fill="#452D34"/>
<path d="M338.147 558.62C336.277 556.105 329.148 546.405 324.298 545.12C311.736 500.655 253.187 491.248 227.127 546.935C226.862 547.235 226.568 547.505 226.25 547.75C219.998 551.43 207.961 551.315 204.163 559.905C201.884 563.88 203.813 570.305 208.137 571.355C207.728 579.77 213.22 584.795 219.998 586.43C220.349 589.12 220.699 591.69 221.225 594.145C212.344 592.45 200.599 598.995 203.228 607.585C203.287 607.645 203.287 607.7 203.228 607.82C203.246 607.92 203.225 608.025 203.17 608.11C199.547 613.195 204.397 620.44 210.766 621.9C219.122 624.53 231.509 621.96 237.352 624.59L239.514 626.46H239.573L241.326 627.8C237.235 629.495 233.73 632.885 233.613 637.15C234.139 639.49 237.878 640.07 238.988 637.85C240.099 635.63 240.04 635.75 241.618 634.29C242.259 633.865 242.922 633.475 243.605 633.12C243.589 633.12 243.574 633.125 243.563 633.135C243.552 633.145 243.546 633.16 243.546 633.175C243.546 633.16 243.552 633.145 243.563 633.135C243.574 633.125 243.589 633.12 243.605 633.12H243.663C244.014 633 243.838 633.12 243.663 633.175C244.421 632.89 245.203 632.675 246 632.535C244.072 635.105 242.962 638.495 244.715 641.065C246.468 643.635 250.09 640.95 249.74 638.145C249.857 637.795 249.915 637.445 250.032 637.09C250.191 636.85 250.327 636.595 250.441 636.335C250.616 637.035 250.792 637.795 250.908 638.555C251.093 640.165 251.074 641.795 250.85 643.405C249.857 645.975 254.765 649.19 256.518 644.805C257.061 641.335 256.861 637.79 255.934 634.405C258.448 634.99 261.01 635.34 263.588 635.455C260.947 638.47 259.567 642.38 259.732 646.385C259.848 647.9 261.017 649.365 262.653 649.305C265.399 649.245 265.75 646.56 265.633 644.395C265.765 643.58 265.981 642.775 266.276 642C266.657 641.185 267.107 640.405 267.62 639.665H267.678C268.203 639.02 268.79 638.435 269.431 637.91L270.308 637.325C269.396 640.735 269.236 644.305 269.84 647.785C270.95 651.7 276.794 649.595 275.45 645.855C275.323 645.045 275.284 644.225 275.333 643.405C275.313 642.64 275.353 641.88 275.45 641.125V641.005C275.615 640.08 275.829 639.165 276.092 638.26L277.086 638.025C278.706 638.95 279.994 640.36 280.767 642.06C281.117 644.045 282.52 646.15 284.799 645.45C285.532 645.23 286.153 644.74 286.534 644.075C286.915 643.41 287.026 642.625 286.844 641.885C285.929 638.36 283.716 635.315 280.65 633.355C299.348 627.745 316.761 611.325 323.539 585.965L323.714 585.44C328.914 586.2 334.115 582.87 335.926 577.96C337.608 577.785 339.188 577.07 340.425 575.915C345.567 570.89 341.536 563.41 338.147 558.62ZM209.714 565.805L209.597 565.69L209.714 565.805ZM209.013 564.52C209.072 564.58 209.072 564.635 209.072 564.755C209.08 564.67 209.06 564.59 209.013 564.52ZM209.948 571.415L210.824 571.3C210.694 571.375 210.549 571.43 210.398 571.45C210.248 571.47 210.094 571.455 209.948 571.415ZM208.02 613.37C207.927 613.145 207.868 612.91 207.844 612.67C207.844 612.495 207.786 612.375 207.786 612.2V612.085C207.842 611.975 207.882 611.855 207.903 611.735C208.955 609.92 209.539 607.7 208.721 605.715C208.663 605.655 208.663 605.48 208.663 605.42V605.015L208.838 604.545C208.955 604.37 209.305 603.67 209.422 603.555C209.539 603.435 209.422 603.495 209.481 603.435C209.849 602.95 210.281 602.52 210.766 602.15C210.708 602.15 210.708 602.09 210.883 602.035H211C211.376 601.78 211.766 601.545 212.168 601.33L212.928 600.925C215.784 599.685 219.01 599.6 221.926 600.69C222.264 601.015 222.661 601.275 223.095 601.45C224.817 607.225 227.483 612.67 230.983 617.575C221.576 616.7 211.175 618.745 208.02 613.37ZM241.501 634.405L241.618 634.29C241.559 634.345 241.559 634.405 241.501 634.405ZM294.557 619.915C293.096 621.315 284.916 626.105 283.221 626.575C276.268 629.67 267.795 630.605 261.952 629.79C259.264 629.555 253.596 627.8 252.486 627.275C249.915 626.34 245.007 623.245 244.014 622.365L243.546 622.015C243.06 621.525 242.532 621.075 241.968 620.675C240.053 618.925 238.275 617.03 236.651 615.005C230.516 606.94 227.536 598.705 226.017 588.535C225.926 588.015 225.887 587.485 225.9 586.96C229.704 586.86 233.405 585.705 236.593 583.625C239.573 586.84 246.117 587.015 250.09 584.505C252.656 583.315 254.959 581.63 256.865 579.545C258.771 577.46 260.242 575.01 261.192 572.35C265.75 558.91 253.83 556.515 255.7 564.285C255.865 564.465 255.967 564.69 255.992 564.93C256.116 565.23 256.214 565.545 256.284 565.865C256.576 570.595 254.414 574.22 250.441 577.55C249.419 578.305 248.323 578.95 247.169 579.48C246.154 579.905 245.096 580.22 244.014 580.415H242.319L241.618 580.18L241.326 580.005L241.092 579.83L240.917 579.595V579.42C240.917 579.36 240.975 579.36 240.975 579.305C241.968 575.74 236.593 574.16 235.307 577.55H235.19L234.781 577.96C234.781 578.02 234.665 578.075 234.606 578.135C232.912 579.42 229.114 580.415 225.841 581H225.374C224.342 581.055 223.309 581.055 222.277 581L220.232 580.53L219.589 580.295C217.778 579.655 216.025 577.845 215.557 577.26C215.09 576.675 215.032 576.44 214.739 576.03C214.549 575.395 214.393 574.755 214.272 574.105C214.272 570.015 214.33 564.58 209.539 565.515C209.508 565.515 209.478 565.5 209.456 565.48C209.434 565.46 209.422 565.43 209.422 565.395L209.305 565.165C209.29 565.165 209.275 565.155 209.264 565.145C209.253 565.135 209.247 565.12 209.247 565.105C209.186 564.845 209.108 564.595 209.013 564.345C209.004 564.11 209.023 563.875 209.072 563.645C209.141 563.25 209.239 562.855 209.364 562.475C209.247 562.59 209.305 562.59 209.364 562.475C209.422 562.36 209.422 562.36 209.422 562.3C209.422 562.24 209.948 561.425 210.065 561.305L210.182 561.13C210.691 560.475 211.279 559.885 211.935 559.38C211.818 559.435 211.759 559.435 211.759 559.495C212.23 559.18 212.718 558.885 213.22 558.62L213.921 558.325C236.125 551.96 228.412 552.19 240.683 535.245C243.915 531.105 247.644 527.375 251.785 524.145C253.947 522.39 259.673 518.71 263.53 517.25C271.768 513.335 285.675 512.865 293.856 516.725C296.82 518.07 299.639 519.715 302.27 521.63C305.035 523.835 307.544 526.345 309.749 529.11C315.709 536.59 319.156 546.99 320.208 555.115C321.903 568.495 320.033 580.47 314.891 592.92C310.859 602.5 303.73 612.9 294.557 619.915ZM240.858 579.36C240.8 579.305 240.858 579.305 240.858 579.36V579.36ZM240.858 579.655V579.715V579.655ZM240.8 579.48V579.36C240.803 579.405 240.824 579.45 240.858 579.48H240.8ZM255.992 564.815V564.695C256.005 564.735 256.005 564.775 255.992 564.815ZM336.919 570.95C336.803 571.24 336.861 571.005 336.919 570.83C336.835 571.015 336.737 571.19 336.627 571.355C336.51 571.475 336.394 571.65 336.277 571.705L335.692 572H335.342C332.596 570.07 330.317 573.345 330.667 574.685C330.621 575.25 330.483 575.805 330.258 576.325C329.843 577.15 329.267 577.885 328.564 578.485L327.512 579.13C327.023 579.32 326.513 579.46 325.993 579.535H325.058C326.848 570.97 327.184 562.16 326.051 553.475C331.135 558.15 335.692 564.23 337.036 569.195V570.245C336.978 570.365 336.978 570.655 336.919 570.775V570.95Z" fill="#452D34"/>
<path d="M335.342 572.06H335.4C335.4 572.075 335.406 572.09 335.417 572.1C335.428 572.11 335.443 572.115 335.458 572.115C335.474 572.115 335.489 572.11 335.5 572.1C335.511 572.09 335.517 572.075 335.517 572.06H335.342Z" fill="#452D34"/>
<path d="M211 601.86H210.942L210.766 602.035L211 601.86Z" fill="#452D34"/>
<path d="M299.813 611.33C309.187 599.205 309.665 583.87 300.882 577.08C292.098 570.29 277.379 574.62 268.005 586.75C258.631 598.875 258.152 614.21 266.936 621C275.719 627.79 290.439 623.46 299.813 611.33Z" fill="#D13535"/>
<path d="M437.012 215.743C443.615 236.486 458.982 250.743 478.265 252.146C499.242 253.665 518.35 238.473 527.115 215.743" fill="white"/>
<path d="M481.186 165.2C480.67 168.484 480.474 171.811 480.602 175.133C480.631 175.574 480.749 176.005 480.949 176.399C481.148 176.793 481.426 177.142 481.764 177.426C482.103 177.71 482.495 177.923 482.918 178.051C483.341 178.179 483.786 178.22 484.225 178.172L499.767 175.25C499.993 175.204 500.205 175.102 500.38 174.954C500.56 174.807 500.695 174.618 500.785 174.404C500.87 174.19 500.905 173.958 500.88 173.728C500.855 173.499 500.775 173.279 500.645 173.088C498.744 170.465 496.481 168.124 493.924 166.135C490.886 163.622 486.679 162.162 482.881 163.213C482.406 163.337 481.991 163.627 481.712 164.031C481.413 164.352 481.228 164.763 481.186 165.2Z" fill="#CE9C5C"/>
<path d="M469.384 148.722L468.916 149.073C467.397 149.599 466.17 150.884 465.702 153.104C464.768 157.487 469.033 161.986 473.474 161.051C482.998 158.889 478.324 144.457 469.384 148.722Z" fill="#452D34"/>
<path d="M491.178 148.08L490.711 148.43C489.25 148.956 487.964 150.242 487.497 152.462C486.562 156.844 490.827 161.344 495.268 160.409C504.795 158.247 500.12 143.814 491.178 148.08Z" fill="#452D34"/>
<path d="M559.895 178.64C564.57 169.933 551.305 164.207 544.06 168.297C540.495 169.758 537.165 171.803 533.66 173.381C533.305 171.511 532.84 169.583 532.315 167.713C516.245 110.041 450.334 113.547 433.857 168.998C433.389 170.518 432.98 172.095 432.63 173.673C428.13 171.686 420.768 166.369 414.574 167.012C408.381 167.655 402.479 173.498 405.81 178.698C394.708 189.04 404.816 204.992 417.671 207.388C417.554 211.595 421.586 216.094 425.91 217.146C428.657 218.239 431.604 218.736 434.558 218.607C440.167 234.617 450.86 246.479 464.066 251.971C460.56 254.601 457.989 258.691 458.924 262.781C460.034 264.943 463.774 264.534 464.241 262.08C464.358 261.437 464.592 260.853 464.767 260.21C466.169 257.522 466.87 256.821 469.734 255.419H469.85C468.956 257.624 468.752 260.048 469.266 262.372C470.493 266.345 476.219 264.008 474.817 260.268V259.041C474.876 258.749 474.992 258.457 475.051 258.165C475.339 258.633 475.593 259.121 475.81 259.626C476.137 260.524 476.41 261.441 476.629 262.372C476.75 262.834 476.847 263.302 476.921 263.774C476.453 268.157 482.413 269.501 482.881 264.884C482.636 261.605 481.742 258.408 480.251 255.477H481.186C483.24 255.467 485.29 255.31 487.321 255.01C485.707 258.4 485.375 262.261 486.387 265.878C486.854 267.339 488.49 268.449 490.009 267.923C491.529 267.397 492.405 264.826 491.704 262.898C491.616 262.121 491.616 261.337 491.704 260.561C491.704 260.444 491.762 260.268 491.762 260.21C492.347 257.697 492.872 256.353 494.45 254.834C494.392 257.288 494.918 260.444 496.32 264.3C497.722 268.157 503.04 266.345 501.93 262.781C500.705 260.151 500.35 256.47 500.47 254.191C500.8 254.105 501.115 253.967 501.405 253.782L502.515 254.191C503.505 254.6 505.845 256.178 506.66 258.223C508.475 261.495 513.615 258.515 511.69 255.243C510.19 252.298 507.68 249.994 504.615 248.757C506.195 247.822 507.715 246.771 509.235 245.661C517.94 239.058 524.895 229.709 529.51 218.49C532.65 218.914 535.85 218.614 538.86 217.613C543.535 216.679 548.325 211.946 548.205 207.505C560.945 204.992 571.23 188.865 559.895 178.64ZM558.61 186.703C558.61 186.586 558.55 186.528 558.55 186.469C558.55 186.411 558.61 186.586 558.61 186.703ZM554.985 175.134L554.87 174.959C554.9 174.977 554.925 175.002 554.95 175.032C554.97 175.063 554.98 175.097 554.985 175.134ZM411.302 174.316L411.185 174.491L411.302 174.316ZM407.387 180.334H407.504C407.855 180.626 407.679 180.568 407.387 180.334ZM407.212 177.529L407.037 177.646L407.212 177.529ZM469.091 255.652L469.558 255.477L469.091 255.652ZM542.305 207.446L542.425 207.563L542.305 207.446ZM542.07 207.154C542.105 207.184 542.125 207.226 542.13 207.271C542.125 207.226 542.105 207.184 542.07 207.154ZM558.9 190.443C558.73 191.335 558.495 192.213 558.2 193.072V193.189C556.62 197.162 551.595 199.85 548.15 201.486C547.485 201.743 546.8 201.938 546.105 202.071H545.05C541.72 200.493 538.915 205.284 542.13 207.213H542.245V207.329H542.305C542.305 207.411 542.325 207.492 542.365 207.563V207.914C542.365 207.972 542.305 208.031 542.305 208.089C542.265 208.161 542.245 208.241 542.245 208.323C541.72 209.608 539.15 211.011 538.215 211.42C535.655 212.437 532.89 212.818 530.15 212.53C528.805 212.352 527.49 211.998 526.235 211.478C525.205 211.048 524.22 210.499 523.315 209.842H523.375C522.86 209.424 522.375 208.975 521.915 208.498C521.685 208.188 521.49 207.855 521.33 207.505C521.27 207.505 521.21 207.388 521.21 207.329H521.155C520.745 203.181 514.315 204.057 515.31 208.206C516.305 212.355 519.575 214.984 523.255 216.62C514.435 237.305 496.671 250.16 478.498 248.816C461.612 247.589 447.763 235.844 440.985 217.263C441.947 216.894 442.883 216.465 443.79 215.977C456.353 208.849 447.705 199.675 444.667 207.271C444.417 207.764 444.124 208.233 443.79 208.673C442.575 209.919 441.125 210.912 439.525 211.595C438.664 211.972 437.762 212.246 436.837 212.413H436.194C432.221 212.939 427.488 212.004 424.975 209.959C424.616 209.658 424.283 209.325 423.982 208.966C423.824 208.745 423.687 208.51 423.573 208.264C423.514 208.148 423.514 208.031 423.456 207.914V207.563C423.49 207.533 423.511 207.491 423.514 207.446L423.69 207.096C426.728 205.752 424.566 200.259 420.943 201.954H419.833C419.112 201.81 418.408 201.595 417.73 201.311C415.217 200.142 411.068 197.98 408.965 195.234C408.447 194.55 408.015 193.804 407.679 193.014C407.646 192.984 407.625 192.942 407.621 192.897C407.365 192.234 407.169 191.55 407.037 190.852C406.978 190.735 406.978 190.384 406.92 190.326C406.803 188.573 406.745 187.697 407.27 186.294C407.796 184.892 411.185 182.379 412.412 179.691C413.055 178.172 411.77 176.01 410.776 175.426V175.543L410.952 175.075C411.041 174.926 411.119 174.769 411.185 174.608C411.828 173.965 411.77 173.848 412.705 173.439H412.763C414.574 172.855 414.925 172.855 416.912 172.972C417.9 173.168 418.861 173.482 419.775 173.907C447.062 188.982 430.994 173.848 450.159 149.891C453.957 144.516 463.189 136.92 469.325 134.641C472.61 133.246 476.07 132.302 479.609 131.836C482.832 131.48 486.085 131.48 489.308 131.836H489.367L492.697 132.479C494.748 132.971 496.76 133.616 498.716 134.407C502.03 135.847 505.15 137.692 508.005 139.9C511.215 142.479 514.12 145.42 516.655 148.664C520.63 153.748 524.775 161.987 526.645 169.115C528.165 174.725 528.105 183.373 536.52 178.581C540.67 176.711 544.585 174.14 548.265 173.147C549.26 172.919 550.29 172.86 551.305 172.972C551.9 173.073 552.49 173.229 553.055 173.439L553.99 173.965L554.11 174.082L554.575 174.608H554.635C554.69 174.755 554.77 174.893 554.87 175.017C554.87 175.075 554.925 175.134 554.925 175.192C554.94 175.316 554.98 175.436 555.045 175.543V175.66C550.78 178.64 555.455 182.847 557.265 184.658C557.765 185.27 558.2 185.936 558.55 186.645C558.61 186.762 558.61 186.82 558.665 186.82C558.72 187.176 558.8 187.527 558.9 187.872C558.955 188.728 558.955 189.587 558.9 190.443Z" fill="#452D34"/>
<path d="M523.315 210.017C522.965 209.667 523.2 209.959 523.315 210.017V210.017Z" fill="#452D34"/>
<path d="M503.685 172.796C500.06 165.2 484.517 153.397 478.499 163.973C476.279 176.185 476.98 184.307 491.704 179.749C495.911 178.405 504.795 179.399 503.685 172.796ZM483.699 175.309C483.758 175.309 483.758 175.309 483.758 175.367L483.699 175.309ZM483.933 175.25C483.874 175.267 483.812 175.271 483.751 175.261C483.69 175.251 483.633 175.227 483.582 175.192C483.582 174.958 483.524 174.958 483.524 175.075V174.724C489.133 174.666 490.302 168.414 484.576 168.53L483.758 168.764H483.699C483.758 167.829 483.875 166.894 483.991 165.959C484.167 165.901 485.277 165.726 484.459 165.901C484.868 165.667 486.329 165.901 486.738 165.901C490.886 166.719 493.983 169.933 496.788 172.913L483.933 175.25ZM498.132 174.607C498.19 174.666 498.19 174.724 498.249 174.724L498.132 174.607Z" fill="#452D34"/>
<path d="M506.67 215.587C507.795 200.3 498.684 187.171 486.326 186.264C473.967 185.356 463.038 197.013 461.915 212.301C460.793 227.588 469.901 240.717 482.26 241.625C494.619 242.532 505.545 230.875 506.67 215.587Z" fill="#D13535"/>
<path d="M816.99 329.918C808.635 329.976 807.465 321.153 806.475 314.784L801.685 320.861C794.615 329.684 780.765 319.985 786.55 310.343C773.52 312.389 768.61 292.054 789.235 291.061C782.75 287.789 775.39 283.231 779.77 274.934C785.03 266.695 792.745 271.37 798.995 275.343C797.24 268.273 795.49 259.274 804.895 257.112C814.305 254.95 816.115 264.767 817.11 272.012L821.96 265.994C829.555 256.587 843.81 268.098 836.335 277.505L832.065 282.881C848.485 277.038 854.155 295.385 841.3 299.884C850.475 306.662 841.065 320.978 831.19 315.252L824.645 311.454C826.69 319.4 827.86 329.042 816.99 329.918ZM807.82 307.071C808.365 307.077 808.89 307.272 809.305 307.624C809.72 307.976 810 308.463 810.095 309L812.495 321.504C813.545 327.347 822.66 325.653 821.49 319.809L819.095 307.363C819.015 306.927 819.06 306.476 819.23 306.065C819.395 305.654 819.68 305.299 820.04 305.041C820.4 304.784 820.83 304.635 821.27 304.611C821.715 304.588 822.155 304.691 822.545 304.909C824.94 305.786 834.285 313.031 837.035 311.687C840.89 310.811 841.59 305.202 838.145 303.332L833.705 300.761C831.835 299.767 832.36 296.787 834.405 296.495L839.895 295.443C845.74 294.392 844.045 285.218 838.2 286.445L826.75 288.607C824.705 289.074 823.125 286.503 824.47 284.867C825.815 283.231 834.58 274.174 833.705 271.253C833.41 267.338 827.92 265.76 825.58 268.916L817.575 278.849C817.295 279.188 816.93 279.442 816.51 279.581C816.095 279.72 815.645 279.739 815.22 279.636C814.79 279.532 814.405 279.31 814.095 278.995C813.79 278.68 813.58 278.285 813.485 277.856C812.025 273.999 812.845 260.151 805.775 261.67C798.705 263.189 804.43 275.401 804.485 279.492C803.67 289.25 788.245 268.448 783.805 277.271C778.37 285.569 805.6 289.25 796.25 294.45C793.91 295.327 781.935 295.969 780.765 298.774C778.425 301.988 781.525 306.662 785.38 305.844L791.75 304.617C793.795 304.15 795.37 306.779 793.97 308.357L790.875 312.213C787.135 316.771 794.38 322.673 798.06 317.94C799.23 317.005 806.065 306.545 807.82 307.071Z" fill="#D13535"/>
<path d="M656.83 106.067C656.21 106.067 655.615 105.821 655.18 105.383C654.74 104.945 654.495 104.35 654.495 103.73V48.3372C654.495 47.7174 654.74 47.1229 655.18 46.6846C655.615 46.2463 656.21 46 656.83 46C657.45 46 658.045 46.2463 658.485 46.6846C658.92 47.1229 659.17 47.7174 659.17 48.3372V103.73C659.17 104.35 658.92 104.945 658.485 105.383C658.045 105.821 657.45 106.067 656.83 106.067Z" fill="#EFDCC4"/>
<path d="M637.025 102.153C636.475 102.149 635.94 101.964 635.505 101.627C635.045 101.221 634.76 100.651 634.715 100.039C634.675 99.4262 634.87 98.8217 635.27 98.3547L674.83 51.1422C675.23 50.6697 675.805 50.3762 676.425 50.3267C677.045 50.2777 677.655 50.4762 678.13 50.8792C678.6 51.2822 678.895 51.8562 678.945 52.4752C678.995 53.0947 678.795 53.7077 678.395 54.1807L638.835 101.335C638.605 101.587 638.325 101.79 638.015 101.931C637.7 102.071 637.365 102.147 637.025 102.153Z" fill="#EFDCC4"/>
<path d="M678.57 100.341C678.26 100.34 677.96 100.277 677.68 100.157C677.395 100.036 677.145 99.8604 676.93 99.6399L633.4 56.1084C632.97 55.6714 632.73 55.0839 632.73 54.4724C632.73 53.8604 632.97 53.2729 633.4 52.8364C633.615 52.6169 633.865 52.4429 634.15 52.3239C634.43 52.2049 634.73 52.1439 635.035 52.1439C635.34 52.1439 635.645 52.2049 635.925 52.3239C636.205 52.4429 636.46 52.6169 636.67 52.8364L680.26 96.3674C680.69 96.8044 680.93 97.3919 680.93 98.0039C680.93 98.6154 680.69 99.2029 680.26 99.6399C680.04 99.8649 679.78 100.043 679.485 100.163C679.195 100.284 678.885 100.344 678.57 100.341Z" fill="#EFDCC4"/>
<path d="M684.47 78.371H629.135C628.515 78.371 627.92 78.1245 627.48 77.6865C627.045 77.248 626.8 76.6535 626.8 76.0335C626.8 75.414 627.045 74.8195 627.48 74.381C627.92 73.9425 628.515 73.6965 629.135 73.6965H684.47C685.09 73.6965 685.685 73.9425 686.12 74.381C686.56 74.8195 686.805 75.414 686.805 76.0335C686.805 76.6535 686.56 77.248 686.12 77.6865C685.685 78.1245 685.09 78.371 684.47 78.371Z" fill="#EFDCC4"/>
<path d="M217.485 280.427C216.866 280.427 216.271 280.181 215.833 279.742C215.394 279.304 215.148 278.71 215.148 278.09V222.755C215.148 222.135 215.394 221.54 215.833 221.102C216.271 220.664 216.866 220.417 217.485 220.417C217.79 220.417 218.091 220.478 218.371 220.596C218.652 220.715 218.905 220.888 219.118 221.105C219.33 221.323 219.497 221.581 219.608 221.865C219.719 222.148 219.772 222.451 219.764 222.755V278.09C219.772 278.394 219.719 278.696 219.608 278.979C219.497 279.263 219.33 279.521 219.118 279.739C218.905 279.957 218.652 280.129 218.371 280.248C218.091 280.366 217.79 280.427 217.485 280.427Z" fill="#CE9C5C"/>
<path d="M197.677 276.57C197.116 276.569 196.575 276.362 196.158 275.987C195.689 275.589 195.395 275.022 195.34 274.41C195.285 273.798 195.474 273.188 195.866 272.714L235.482 225.56C235.898 225.162 236.445 224.931 237.02 224.912C237.595 224.892 238.157 225.086 238.598 225.455C239.039 225.823 239.329 226.342 239.412 226.911C239.495 227.481 239.365 228.06 239.047 228.54L199.43 275.694C199.224 275.964 198.959 276.184 198.656 276.336C198.352 276.488 198.017 276.568 197.677 276.57Z" fill="#CE9C5C"/>
<path d="M239.222 274.759C238.916 274.758 238.614 274.695 238.332 274.575C238.051 274.454 237.797 274.279 237.586 274.058L194.054 230.527C193.833 230.309 193.658 230.05 193.538 229.764C193.419 229.478 193.357 229.171 193.357 228.861C193.357 228.551 193.419 228.244 193.538 227.959C193.658 227.673 193.833 227.413 194.054 227.196C194.491 226.768 195.079 226.528 195.69 226.528C196.302 226.528 196.89 226.768 197.326 227.196L240.858 270.786C241.077 270.998 241.251 271.253 241.37 271.534C241.489 271.815 241.55 272.117 241.55 272.422C241.55 272.727 241.489 273.029 241.37 273.31C241.251 273.591 241.077 273.846 240.858 274.058C240.648 274.281 240.395 274.459 240.113 274.58C239.832 274.7 239.528 274.761 239.222 274.759Z" fill="#CE9C5C"/>
<path d="M245.124 252.731H189.789C189.485 252.738 189.183 252.685 188.899 252.574C188.616 252.463 188.358 252.297 188.14 252.084C187.922 251.872 187.749 251.618 187.631 251.338C187.513 251.057 187.452 250.756 187.452 250.452C187.452 249.832 187.698 249.237 188.137 248.799C188.575 248.361 189.169 248.115 189.789 248.115H245.124C245.744 248.115 246.338 248.361 246.777 248.799C247.215 249.237 247.461 249.832 247.461 250.452C247.461 250.756 247.4 251.057 247.282 251.338C247.164 251.618 246.991 251.872 246.773 252.084C246.555 252.297 246.297 252.463 246.014 252.574C245.731 252.685 245.428 252.738 245.124 252.731Z" fill="#CE9C5C"/>
</svg>
